solid Guitar Piece
facet normal 0.0 0.0 -1.0
outer loop
vertex 95.9569309228203 -38.2690142065313 0.0
vertex 94.9569309228203 -42.2690142065313 0.0
vertex 94.9569309228203 -38.2690142065313 0.0
endloop
endfacet
facet normal 0.0 0.0 -1.0
outer loop
vertex 94.9569309228203 -42.2690142065313 0.0
vertex 95.9569309228203 -38.2690142065313 0.0
vertex 95.9569309228203 -42.2690142065313 0.0
endloop
endfacet
facet normal 0.0 0.0 -1.0
outer loop
vertex 96.9569309228203 -44.0690142065313 0.0
vertex 95.9569309228203 -48.023984959189 0.0
vertex 95.9569309228203 -44.0690142065313 0.0
endloop
endfacet
facet normal 0.0 -1.0 0.0
outer loop
vertex 95.9569309228203 -44.0690142065313 6.2717340604837
vertex 94.9569309228203 -44.0690142065313 3.5
vertex 95.9569309228203 -44.0690142065313 3.5
endloop
endfacet
facet normal 0.0 -1.0 0.0
outer loop
vertex 94.9569309228203 -44.0690142065313 3.5
vertex 95.9569309228203 -44.0690142065313 6.2717340604837
vertex 94.9569309228203 -44.0690142065313 6.2717340604837
endloop
endfacet
facet normal 0.0 0.0 1.0
outer loop
vertex 95.9569309228203 -44.0690142065313 6.2717340604837
vertex 94.9569309228203 -42.2690142065313 6.2717340604837
vertex 94.9569309228203 -44.0690142065313 6.2717340604837
endloop
endfacet
facet normal 0.0 0.0 1.0
outer loop
vertex 94.9569309228203 -42.2690142065313 6.2717340604837
vertex 95.9569309228203 -44.0690142065313 6.2717340604837
vertex 95.9569309228203 -42.2690142065313 6.2717340604837
endloop
endfacet
facet normal -1.0 0.0 0.0
outer loop
vertex 94.9569309228203 -42.2690142065313 6.2717340604837
vertex 94.9569309228203 -44.0690142065313 3.5
vertex 94.9569309228203 -44.0690142065313 6.2717340604837
endloop
endfacet
facet normal -1.0 0.0 0.0
outer loop
vertex 94.9569309228203 -44.0690142065313 3.5
vertex 94.9569309228203 -42.2690142065313 6.2717340604837
vertex 94.9569309228203 -42.2690142065313 3.5
endloop
endfacet
facet normal 0.969489723165756 -0.245131957679912 -2.10931799979014e-017
outer loop
vertex 96.9569309228203 -44.0690142065313 0.0
vertex 95.9569309228203 -48.023984959189 4.98632412230988
vertex 95.9569309228203 -48.023984959189 0.0
endloop
endfacet
facet normal 0.986235328262137 -0.0511082838187672 0.157250820706207
outer loop
vertex 95.9569309228203 -44.0690142065313 6.2717340604837
vertex 95.9569309228203 -48.023984959189 4.98632412230988
vertex 96.9569309228203 -44.0690142065313 0.0
endloop
endfacet
facet normal 0.0 -0.309095738445416 0.951030927191583
outer loop
vertex 95.9569309228203 -48.023984959189 4.98632412230988
vertex 94.9569309228203 -44.0690142065313 6.2717340604837
vertex 94.9569309228203 -48.023984959189 4.98632412230988
endloop
endfacet
facet normal 0.0 -0.309095738445416 0.951030927191583
outer loop
vertex 94.9569309228203 -44.0690142065313 6.2717340604837
vertex 95.9569309228203 -48.023984959189 4.98632412230988
vertex 95.9569309228203 -44.0690142065313 6.2717340604837
endloop
endfacet
facet normal 0.0 0.0 -1.0
outer loop
vertex 95.9569309228203 -42.2690142065313 3.5
vertex 94.9569309228203 -44.0690142065313 3.5
vertex 94.9569309228203 -42.2690142065313 3.5
endloop
endfacet
facet normal 0.0 0.0 -1.0
outer loop
vertex 94.9569309228203 -44.0690142065313 3.5
vertex 95.9569309228203 -42.2690142065313 3.5
vertex 95.9569309228203 -44.0690142065313 3.5
endloop
endfacet
facet normal 0.0 1.0 0.0
outer loop
vertex 94.9569309228203 -42.2690142065313 3.5
vertex 95.9569309228203 -42.2690142065313 1.44570311691243
vertex 94.9569309228203 -42.2690142065313 1.44570311691243
endloop
endfacet
facet normal 0.0 1.0 0.0
outer loop
vertex 95.9569309228203 -42.2690142065313 1.44570311691243
vertex 94.9569309228203 -42.2690142065313 3.5
vertex 95.9569309228203 -42.2690142065313 3.5
endloop
endfacet
facet normal 0.0 1.0 0.0
outer loop
vertex 94.9569309228203 -42.3690142065313 1.44570311691243
vertex 95.9569309228203 -42.3690142065313 1.2
vertex 94.9569309228203 -42.3690142065313 1.2
endloop
endfacet
facet normal 0.0 1.0 0.0
outer loop
vertex 95.9569309228203 -42.3690142065313 1.2
vertex 94.9569309228203 -42.3690142065313 1.44570311691243
vertex 95.9569309228203 -42.3690142065313 1.44570311691243
endloop
endfacet
facet normal 0.0 0.0 -1.0
outer loop
vertex 95.9569309228203 -42.2690142065313 1.44570311691243
vertex 94.9569309228203 -42.3690142065313 1.44570311691243
vertex 94.9569309228203 -42.2690142065313 1.44570311691243
endloop
endfacet
facet normal 0.0 0.0 -1.0
outer loop
vertex 94.9569309228203 -42.3690142065313 1.44570311691243
vertex 95.9569309228203 -42.2690142065313 1.44570311691243
vertex 95.9569309228203 -42.3690142065313 1.44570311691243
endloop
endfacet
facet normal 1.0 0.0 0.0
outer loop
vertex 95.9569309228203 -42.2690142065313 1.2
vertex 95.9569309228203 -42.3690142065313 1.44570311691243
vertex 95.9569309228203 -42.3690142065313 1.2
endloop
endfacet
facet normal 1.0 0.0 0.0
outer loop
vertex 95.9569309228203 -42.3690142065313 1.44570311691243
vertex 95.9569309228203 -42.2690142065313 1.2
vertex 95.9569309228203 -42.2690142065313 1.44570311691243
endloop
endfacet
facet normal 0.0 0.0 1.0
outer loop
vertex 95.9569309228203 -42.3690142065313 1.2
vertex 94.9569309228203 -42.2690142065313 1.2
vertex 94.9569309228203 -42.3690142065313 1.2
endloop
endfacet
facet normal 0.0 0.0 1.0
outer loop
vertex 94.9569309228203 -42.2690142065313 1.2
vertex 95.9569309228203 -42.3690142065313 1.2
vertex 95.9569309228203 -42.2690142065313 1.2
endloop
endfacet
facet normal -1.0 0.0 0.0
outer loop
vertex 94.9569309228203 -42.2690142065313 1.44570311691243
vertex 94.9569309228203 -42.3690142065313 1.2
vertex 94.9569309228203 -42.3690142065313 1.44570311691243
endloop
endfacet
facet normal -1.0 0.0 0.0
outer loop
vertex 94.9569309228203 -42.3690142065313 1.2
vertex 94.9569309228203 -42.2690142065313 1.44570311691243
vertex 94.9569309228203 -42.2690142065313 1.2
endloop
endfacet
facet normal 0.0 1.0 0.0
outer loop
vertex 94.9569309228203 -38.2690142065313 4.98526354040971
vertex 95.9569309228203 -38.2690142065313 0.0
vertex 94.9569309228203 -38.2690142065313 0.0
endloop
endfacet
facet normal 0.0 1.0 0.0
outer loop
vertex 95.9569309228203 -38.2690142065313 0.0
vertex 94.9569309228203 -38.2690142065313 4.98526354040971
vertex 95.9569309228203 -38.2690142065313 4.98526354040971
endloop
endfacet
facet normal 0.0 0.0 -1.0
outer loop
vertex 96.9569309228203 -42.2690142065313 0.0
vertex 95.9569309228203 -42.2690142065313 0.0
vertex 95.9569309228203 -38.2690142065313 0.0
endloop
endfacet
facet normal 0.970142500145332 0.242535625036332 -2.06436133479271e-017
outer loop
vertex 95.9569309228203 -38.2690142065313 4.98526354040971
vertex 96.9569309228203 -42.2690142065313 0.0
vertex 95.9569309228203 -38.2690142065313 0.0
endloop
endfacet
facet normal 0.0 1.0 0.0
outer loop
vertex 94.9569309228203 -42.2690142065313 6.2717340604837
vertex 95.9569309228203 -42.2690142065313 3.5
vertex 94.9569309228203 -42.2690142065313 3.5
endloop
endfacet
facet normal 0.0 1.0 0.0
outer loop
vertex 95.9569309228203 -42.2690142065313 1.2
vertex 96.9569309228203 -42.2690142065313 0.0
vertex 95.9569309228203 -42.2690142065313 0.0
endloop
endfacet
facet normal 0.0 1.0 0.0
outer loop
vertex 96.9569309228203 -42.2690142065313 0.0
vertex 95.9569309228203 -42.2690142065313 1.2
vertex 95.9569309228203 -42.2690142065313 6.2717340604837
endloop
endfacet
facet normal 0.0 1.0 0.0
outer loop
vertex 95.9569309228203 -42.2690142065313 6.2717340604837
vertex 95.9569309228203 -42.2690142065313 1.2
vertex 95.9569309228203 -42.2690142065313 1.44570311691243
endloop
endfacet
facet normal 0.0 1.0 0.0
outer loop
vertex 95.9569309228203 -42.2690142065313 6.2717340604837
vertex 95.9569309228203 -42.2690142065313 1.44570311691243
vertex 95.9569309228203 -42.2690142065313 3.5
endloop
endfacet
facet normal 0.0 1.0 0.0
outer loop
vertex 95.9569309228203 -42.2690142065313 6.2717340604837
vertex 95.9569309228203 -42.2690142065313 3.5
vertex 94.9569309228203 -42.2690142065313 6.2717340604837
endloop
endfacet
facet normal 0.987525908400649 0.0 0.157456597948365
outer loop
vertex 96.9569309228203 -42.2690142065313 0.0
vertex 95.9569309228203 -44.0690142065313 6.2717340604837
vertex 96.9569309228203 -44.0690142065313 0.0
endloop
endfacet
facet normal 0.987525908400649 0.0 0.157456597948365
outer loop
vertex 95.9569309228203 -44.0690142065313 6.2717340604837
vertex 96.9569309228203 -42.2690142065313 0.0
vertex 95.9569309228203 -42.2690142065313 6.2717340604837
endloop
endfacet
facet normal 1.0 0.0 0.0
outer loop
vertex 95.9569309228203 -38.2690142065313 0.0
vertex 95.9569309228203 -42.2690142065313 1.2
vertex 95.9569309228203 -42.2690142065313 0.0
endloop
endfacet
facet normal 1.0 0.0 0.0
outer loop
vertex 95.9569309228203 -42.2690142065313 1.2
vertex 95.9569309228203 -38.2690142065313 0.0
vertex 95.9569309228203 -42.2690142065313 1.44570311691243
endloop
endfacet
facet normal 1.0 0.0 0.0
outer loop
vertex 95.9569309228203 -42.2690142065313 1.44570311691243
vertex 95.9569309228203 -38.2690142065313 0.0
vertex 95.9569309228203 -42.2690142065313 3.5
endloop
endfacet
facet normal 1.0 0.0 0.0
outer loop
vertex 95.9569309228203 -42.2690142065313 3.5
vertex 95.9569309228203 -38.2690142065313 0.0
vertex 95.9569309228203 -42.2690142065313 6.2717340604837
endloop
endfacet
facet normal 1.0 0.0 0.0
outer loop
vertex 95.9569309228203 -42.2690142065313 6.2717340604837
vertex 95.9569309228203 -38.2690142065313 0.0
vertex 95.9569309228203 -38.2690142065313 4.98526354040971
endloop
endfacet
facet normal 1.0 0.0 0.0
outer loop
vertex 95.9569309228203 -42.2690142065313 3.5
vertex 95.9569309228203 -44.0690142065313 6.2717340604837
vertex 95.9569309228203 -44.0690142065313 3.5
endloop
endfacet
facet normal 1.0 0.0 0.0
outer loop
vertex 95.9569309228203 -44.0690142065313 6.2717340604837
vertex 95.9569309228203 -42.2690142065313 3.5
vertex 95.9569309228203 -42.2690142065313 6.2717340604837
endloop
endfacet
facet normal -0.98626208731639 -0.050576008491554 -0.15725508731796
outer loop
vertex 95.9569309228203 -38.2690142065313 4.98526354040971
vertex 96.9569309228203 -42.2690142065313 0.0
vertex 95.9569309228203 -42.2690142065313 6.2717340604837
endloop
endfacet
facet normal 0.0 0.306172301633418 0.951976114045145
outer loop
vertex 95.9569309228203 -42.2690142065313 6.2717340604837
vertex 94.9569309228203 -38.2690142065313 4.98526354040971
vertex 94.9569309228203 -42.2690142065313 6.2717340604837
endloop
endfacet
facet normal 0.0 0.306172301633418 0.951976114045145
outer loop
vertex 94.9569309228203 -38.2690142065313 4.98526354040971
vertex 95.9569309228203 -42.2690142065313 6.2717340604837
vertex 95.9569309228203 -38.2690142065313 4.98526354040971
endloop
endfacet
facet normal -1.0 0.0 0.0
outer loop
vertex 94.9569309228203 -38.2690142065313 4.98526354040971
vertex 94.9569309228203 -42.2690142065313 3.5
vertex 94.9569309228203 -42.2690142065313 6.2717340604837
endloop
endfacet
facet normal -1.0 0.0 0.0
outer loop
vertex 94.9569309228203 -42.2690142065313 3.5
vertex 94.9569309228203 -38.2690142065313 4.98526354040971
vertex 94.9569309228203 -42.2690142065313 1.44570311691243
endloop
endfacet
facet normal -1.0 0.0 0.0
outer loop
vertex 94.9569309228203 -42.2690142065313 1.44570311691243
vertex 94.9569309228203 -38.2690142065313 4.98526354040971
vertex 94.9569309228203 -42.2690142065313 1.2
endloop
endfacet
facet normal -1.0 0.0 0.0
outer loop
vertex 94.9569309228203 -42.2690142065313 1.2
vertex 94.9569309228203 -38.2690142065313 4.98526354040971
vertex 94.9569309228203 -42.2690142065313 0.0
endloop
endfacet
facet normal -1.0 0.0 0.0
outer loop
vertex 94.9569309228203 -42.2690142065313 0.0
vertex 94.9569309228203 -38.2690142065313 4.98526354040971
vertex 94.9569309228203 -38.2690142065313 0.0
endloop
endfacet
facet normal 0.0 0.0 -1.0
outer loop
vertex 94.9569309228203 -38.2690142065313 0.0
vertex 93.9569309228203 -42.2690142065313 0.0
vertex 93.9569309228203 -38.2690142065313 0.0
endloop
endfacet
facet normal 0.0 0.0 -1.0
outer loop
vertex 93.9569309228203 -42.2690142065313 0.0
vertex 94.9569309228203 -38.2690142065313 0.0
vertex 94.9569309228203 -42.2690142065313 0.0
endloop
endfacet
facet normal 0.0 -1.0 0.0
outer loop
vertex 95.9569309228203 -48.023984959189 4.98632412230988
vertex 94.9569309228203 -48.023984959189 0.0
vertex 95.9569309228203 -48.023984959189 0.0
endloop
endfacet
facet normal 0.0 -1.0 0.0
outer loop
vertex 94.9569309228203 -48.023984959189 0.0
vertex 95.9569309228203 -48.023984959189 4.98632412230988
vertex 94.9569309228203 -48.023984959189 4.98632412230988
endloop
endfacet
facet normal 0.0 1.0 0.0
outer loop
vertex 93.9569309228203 -42.2690142065313 6.2717340604837
vertex 94.9569309228203 -42.2690142065313 0.0
vertex 93.9569309228203 -42.2690142065313 0.0
endloop
endfacet
facet normal 0.0 1.0 0.0
outer loop
vertex 94.9569309228203 -42.2690142065313 0.0
vertex 93.9569309228203 -42.2690142065313 6.2717340604837
vertex 94.9569309228203 -42.2690142065313 1.2
endloop
endfacet
facet normal 0.0 1.0 0.0
outer loop
vertex 94.9569309228203 -42.2690142065313 1.2
vertex 93.9569309228203 -42.2690142065313 6.2717340604837
vertex 94.9569309228203 -42.2690142065313 1.44570311691243
endloop
endfacet
facet normal 0.0 1.0 0.0
outer loop
vertex 94.9569309228203 -42.2690142065313 1.44570311691243
vertex 93.9569309228203 -42.2690142065313 6.2717340604837
vertex 94.9569309228203 -42.2690142065313 3.5
endloop
endfacet
facet normal 0.0 1.0 0.0
outer loop
vertex 94.9569309228203 -42.2690142065313 3.5
vertex 93.9569309228203 -42.2690142065313 6.2717340604837
vertex 94.9569309228203 -42.2690142065313 6.2717340604837
endloop
endfacet
facet normal 0.0 0.0 1.0
outer loop
vertex 94.9569309228203 -44.0690142065313 6.2717340604837
vertex 93.9569309228203 -42.2690142065313 6.2717340604837
vertex 93.9569309228203 -44.0690142065313 6.2717340604837
endloop
endfacet
facet normal 0.0 0.0 1.0
outer loop
vertex 93.9569309228203 -42.2690142065313 6.2717340604837
vertex 94.9569309228203 -44.0690142065313 6.2717340604837
vertex 94.9569309228203 -42.2690142065313 6.2717340604837
endloop
endfacet
facet normal 0.0 -1.0 0.0
outer loop
vertex 94.9569309228203 -48.023984959189 4.98632412230988
vertex 93.9569309228203 -48.023984959189 0.0
vertex 94.9569309228203 -48.023984959189 0.0
endloop
endfacet
facet normal 0.0 -1.0 0.0
outer loop
vertex 93.9569309228203 -48.023984959189 0.0
vertex 94.9569309228203 -48.023984959189 4.98632412230988
vertex 93.9569309228203 -48.023984959189 4.98632412230988
endloop
endfacet
facet normal 0.0 1.0 0.0
outer loop
vertex 93.9569309228203 -38.2690142065313 4.98632412230988
vertex 94.9569309228203 -38.2690142065313 0.0
vertex 93.9569309228203 -38.2690142065313 0.0
endloop
endfacet
facet normal 0.0 1.0 0.0
outer loop
vertex 94.9569309228203 -38.2690142065313 0.0
vertex 93.9569309228203 -38.2690142065313 4.98632412230988
vertex 94.9569309228203 -38.2690142065313 4.98526354040971
endloop
endfacet
facet normal -1.0 0.0 0.0
outer loop
vertex 93.9569309228203 -38.2690142065313 4.98632412230988
vertex 93.9569309228203 -42.2690142065313 0.0
vertex 93.9569309228203 -42.2690142065313 6.2717340604837
endloop
endfacet
facet normal -1.0 0.0 0.0
outer loop
vertex 93.9569309228203 -42.2690142065313 0.0
vertex 93.9569309228203 -38.2690142065313 4.98632412230988
vertex 93.9569309228203 -38.2690142065313 0.0
endloop
endfacet
facet normal 0.00050484375756632 0.306057880667468 0.952012772400727
outer loop
vertex 94.9569309228203 -42.2690142065313 6.2717340604837
vertex 93.9569309228203 -38.2690142065313 4.98632412230988
vertex 93.9569309228203 -42.2690142065313 6.2717340604837
endloop
endfacet
facet normal 0.00050484375756632 0.306057880667468 0.952012772400727
outer loop
vertex 93.9569309228203 -38.2690142065313 4.98632412230988
vertex 94.9569309228203 -42.2690142065313 6.2717340604837
vertex 94.9569309228203 -38.2690142065313 4.98526354040971
endloop
endfacet
facet normal 0.0 -0.309095738445416 0.951030927191583
outer loop
vertex 94.9569309228203 -48.023984959189 4.98632412230988
vertex 93.9569309228203 -44.0690142065313 6.2717340604837
vertex 93.9569309228203 -48.023984959189 4.98632412230988
endloop
endfacet
facet normal 0.0 -0.309095738445416 0.951030927191583
outer loop
vertex 93.9569309228203 -44.0690142065313 6.2717340604837
vertex 94.9569309228203 -48.023984959189 4.98632412230988
vertex 94.9569309228203 -44.0690142065313 6.2717340604837
endloop
endfacet
facet normal -1.0 0.0 0.0
outer loop
vertex 93.9569309228203 -44.0690142065313 6.2717340604837
vertex 93.9569309228203 -48.023984959189 0.0
vertex 93.9569309228203 -48.023984959189 4.98632412230988
endloop
endfacet
facet normal -1.0 0.0 0.0
outer loop
vertex 93.9569309228203 -48.023984959189 0.0
vertex 93.9569309228203 -44.0690142065313 6.2717340604837
vertex 93.9569309228203 -44.0690142065313 0.0
endloop
endfacet
facet normal 0.0 1.0 0.0
outer loop
vertex 94.9569309228203 -42.2690142065313 1.2
vertex 95.9569309228203 -42.2690142065313 0.0
vertex 94.9569309228203 -42.2690142065313 0.0
endloop
endfacet
facet normal 0.0 1.0 0.0
outer loop
vertex 95.9569309228203 -42.2690142065313 0.0
vertex 94.9569309228203 -42.2690142065313 1.2
vertex 95.9569309228203 -42.2690142065313 1.2
endloop
endfacet
facet normal 0.0 -1.0 0.0
outer loop
vertex 95.9569309228203 -44.0690142065313 3.5
vertex 94.9569309228203 -44.0690142065313 1.44570311691243
vertex 95.9569309228203 -44.0690142065313 1.44570311691243
endloop
endfacet
facet normal 0.0 -1.0 0.0
outer loop
vertex 94.9569309228203 -44.0690142065313 1.44570311691243
vertex 95.9569309228203 -44.0690142065313 3.5
vertex 94.9569309228203 -44.0690142065313 3.5
endloop
endfacet
facet normal 0.0 0.0 -1.0
outer loop
vertex 95.9569309228203 -43.9690142065313 1.44570311691243
vertex 94.9569309228203 -44.0690142065313 1.44570311691243
vertex 94.9569309228203 -43.9690142065313 1.44570311691243
endloop
endfacet
facet normal 0.0 0.0 -1.0
outer loop
vertex 94.9569309228203 -44.0690142065313 1.44570311691243
vertex 95.9569309228203 -43.9690142065313 1.44570311691243
vertex 95.9569309228203 -44.0690142065313 1.44570311691243
endloop
endfacet
facet normal -1.0 0.0 0.0
outer loop
vertex 93.9569309228203 -42.2690142065313 6.2717340604837
vertex 93.9569309228203 -44.0690142065313 0.0
vertex 93.9569309228203 -44.0690142065313 6.2717340604837
endloop
endfacet
facet normal -1.0 0.0 0.0
outer loop
vertex 93.9569309228203 -44.0690142065313 0.0
vertex 93.9569309228203 -42.2690142065313 6.2717340604837
vertex 93.9569309228203 -42.2690142065313 0.0
endloop
endfacet
facet normal 1.0 0.0 0.0
outer loop
vertex 95.9569309228203 -42.2690142065313 0.0
vertex 95.9569309228203 -44.0690142065313 1.2
vertex 95.9569309228203 -44.0690142065313 0.0
endloop
endfacet
facet normal 1.0 0.0 0.0
outer loop
vertex 95.9569309228203 -44.0690142065313 1.2
vertex 95.9569309228203 -42.2690142065313 0.0
vertex 95.9569309228203 -43.9690142065313 1.2
endloop
endfacet
facet normal 1.0 0.0 0.0
outer loop
vertex 95.9569309228203 -43.9690142065313 1.2
vertex 95.9569309228203 -42.2690142065313 0.0
vertex 95.9569309228203 -43.9690142065313 1.44570311691243
endloop
endfacet
facet normal 1.0 0.0 0.0
outer loop
vertex 95.9569309228203 -43.9690142065313 1.44570311691243
vertex 95.9569309228203 -42.2690142065313 0.0
vertex 95.9569309228203 -42.3690142065313 1.2
endloop
endfacet
facet normal 1.0 0.0 0.0
outer loop
vertex 95.9569309228203 -42.3690142065313 1.2
vertex 95.9569309228203 -42.2690142065313 0.0
vertex 95.9569309228203 -42.2690142065313 1.2
endloop
endfacet
facet normal 1.0 0.0 0.0
outer loop
vertex 95.9569309228203 -43.9690142065313 1.44570311691243
vertex 95.9569309228203 -44.0690142065313 3.5
vertex 95.9569309228203 -44.0690142065313 1.44570311691243
endloop
endfacet
facet normal 1.0 0.0 0.0
outer loop
vertex 95.9569309228203 -44.0690142065313 3.5
vertex 95.9569309228203 -43.9690142065313 1.44570311691243
vertex 95.9569309228203 -42.2690142065313 3.5
endloop
endfacet
facet normal 1.0 0.0 0.0
outer loop
vertex 95.9569309228203 -42.2690142065313 3.5
vertex 95.9569309228203 -43.9690142065313 1.44570311691243
vertex 95.9569309228203 -42.3690142065313 1.44570311691243
endloop
endfacet
facet normal 1.0 0.0 0.0
outer loop
vertex 95.9569309228203 -42.3690142065313 1.44570311691243
vertex 95.9569309228203 -43.9690142065313 1.44570311691243
vertex 95.9569309228203 -42.3690142065313 1.2
endloop
endfacet
facet normal 1.0 0.0 0.0
outer loop
vertex 95.9569309228203 -42.2690142065313 3.5
vertex 95.9569309228203 -42.3690142065313 1.44570311691243
vertex 95.9569309228203 -42.2690142065313 1.44570311691243
endloop
endfacet
facet normal -1.0 0.0 0.0
outer loop
vertex 94.9569309228203 -42.2690142065313 3.5
vertex 94.9569309228203 -44.0690142065313 1.44570311691243
vertex 94.9569309228203 -44.0690142065313 3.5
endloop
endfacet
facet normal -1.0 0.0 0.0
outer loop
vertex 94.9569309228203 -44.0690142065313 1.44570311691243
vertex 94.9569309228203 -42.2690142065313 3.5
vertex 94.9569309228203 -43.9690142065313 1.44570311691243
endloop
endfacet
facet normal -1.0 0.0 0.0
outer loop
vertex 94.9569309228203 -43.9690142065313 1.44570311691243
vertex 94.9569309228203 -42.2690142065313 3.5
vertex 94.9569309228203 -43.9690142065313 1.2
endloop
endfacet
facet normal -1.0 0.0 0.0
outer loop
vertex 94.9569309228203 -43.9690142065313 1.2
vertex 94.9569309228203 -42.2690142065313 3.5
vertex 94.9569309228203 -42.3690142065313 1.44570311691243
endloop
endfacet
facet normal -1.0 0.0 0.0
outer loop
vertex 94.9569309228203 -42.3690142065313 1.44570311691243
vertex 94.9569309228203 -42.2690142065313 3.5
vertex 94.9569309228203 -42.2690142065313 1.44570311691243
endloop
endfacet
facet normal -1.0 0.0 0.0
outer loop
vertex 94.9569309228203 -43.9690142065313 1.2
vertex 94.9569309228203 -44.0690142065313 0.0
vertex 94.9569309228203 -44.0690142065313 1.2
endloop
endfacet
facet normal -1.0 0.0 0.0
outer loop
vertex 94.9569309228203 -44.0690142065313 0.0
vertex 94.9569309228203 -43.9690142065313 1.2
vertex 94.9569309228203 -42.2690142065313 0.0
endloop
endfacet
facet normal -1.0 0.0 0.0
outer loop
vertex 94.9569309228203 -42.2690142065313 0.0
vertex 94.9569309228203 -43.9690142065313 1.2
vertex 94.9569309228203 -42.3690142065313 1.2
endloop
endfacet
facet normal -1.0 0.0 0.0
outer loop
vertex 94.9569309228203 -42.3690142065313 1.2
vertex 94.9569309228203 -43.9690142065313 1.2
vertex 94.9569309228203 -42.3690142065313 1.44570311691243
endloop
endfacet
facet normal -1.0 0.0 0.0
outer loop
vertex 94.9569309228203 -42.2690142065313 0.0
vertex 94.9569309228203 -42.3690142065313 1.2
vertex 94.9569309228203 -42.2690142065313 1.2
endloop
endfacet
facet normal -1.0 0.0 0.0
outer loop
vertex 94.9569309228203 -44.0690142065313 6.2717340604837
vertex 94.9569309228203 -48.023984959189 0.0
vertex 94.9569309228203 -48.023984959189 4.98632412230988
endloop
endfacet
facet normal -1.0 0.0 0.0
outer loop
vertex 94.9569309228203 -48.023984959189 0.0
vertex 94.9569309228203 -44.0690142065313 6.2717340604837
vertex 94.9569309228203 -44.0690142065313 0.0
endloop
endfacet
facet normal -1.0 0.0 0.0
outer loop
vertex 94.9569309228203 -44.0690142065313 0.0
vertex 94.9569309228203 -44.0690142065313 6.2717340604837
vertex 94.9569309228203 -44.0690142065313 3.5
endloop
endfacet
facet normal -1.0 0.0 0.0
outer loop
vertex 94.9569309228203 -44.0690142065313 0.0
vertex 94.9569309228203 -44.0690142065313 3.5
vertex 94.9569309228203 -44.0690142065313 1.44570311691243
endloop
endfacet
facet normal -1.0 0.0 0.0
outer loop
vertex 94.9569309228203 -44.0690142065313 0.0
vertex 94.9569309228203 -44.0690142065313 1.44570311691243
vertex 94.9569309228203 -44.0690142065313 1.2
endloop
endfacet
facet normal 0.0 -1.0 0.0
outer loop
vertex 94.9569309228203 -44.0690142065313 1.2
vertex 93.9569309228203 -44.0690142065313 0.0
vertex 94.9569309228203 -44.0690142065313 0.0
endloop
endfacet
facet normal 0.0 -1.0 0.0
outer loop
vertex 93.9569309228203 -44.0690142065313 0.0
vertex 94.9569309228203 -44.0690142065313 1.2
vertex 93.9569309228203 -44.0690142065313 6.2717340604837
endloop
endfacet
facet normal 0.0 -1.0 0.0
outer loop
vertex 93.9569309228203 -44.0690142065313 6.2717340604837
vertex 94.9569309228203 -44.0690142065313 1.2
vertex 94.9569309228203 -44.0690142065313 1.44570311691243
endloop
endfacet
facet normal 0.0 -1.0 0.0
outer loop
vertex 93.9569309228203 -44.0690142065313 6.2717340604837
vertex 94.9569309228203 -44.0690142065313 1.44570311691243
vertex 94.9569309228203 -44.0690142065313 3.5
endloop
endfacet
facet normal 0.0 -1.0 0.0
outer loop
vertex 93.9569309228203 -44.0690142065313 6.2717340604837
vertex 94.9569309228203 -44.0690142065313 3.5
vertex 94.9569309228203 -44.0690142065313 6.2717340604837
endloop
endfacet
facet normal 0.0 0.0 -1.0
outer loop
vertex 94.9569309228203 -44.0690142065313 0.0
vertex 93.9569309228203 -48.023984959189 0.0
vertex 93.9569309228203 -44.0690142065313 0.0
endloop
endfacet
facet normal 0.0 0.0 -1.0
outer loop
vertex 93.9569309228203 -48.023984959189 0.0
vertex 94.9569309228203 -44.0690142065313 0.0
vertex 94.9569309228203 -48.023984959189 0.0
endloop
endfacet
facet normal 1.0 0.0 0.0
outer loop
vertex 95.9569309228203 -44.0690142065313 0.0
vertex 95.9569309228203 -48.023984959189 4.98632412230988
vertex 95.9569309228203 -48.023984959189 0.0
endloop
endfacet
facet normal 1.0 0.0 0.0
outer loop
vertex 95.9569309228203 -48.023984959189 4.98632412230988
vertex 95.9569309228203 -44.0690142065313 0.0
vertex 95.9569309228203 -44.0690142065313 6.2717340604837
endloop
endfacet
facet normal 1.0 0.0 0.0
outer loop
vertex 95.9569309228203 -44.0690142065313 6.2717340604837
vertex 95.9569309228203 -44.0690142065313 0.0
vertex 95.9569309228203 -44.0690142065313 1.2
endloop
endfacet
facet normal 1.0 0.0 0.0
outer loop
vertex 95.9569309228203 -44.0690142065313 6.2717340604837
vertex 95.9569309228203 -44.0690142065313 1.2
vertex 95.9569309228203 -44.0690142065313 1.44570311691243
endloop
endfacet
facet normal 1.0 0.0 0.0
outer loop
vertex 95.9569309228203 -44.0690142065313 6.2717340604837
vertex 95.9569309228203 -44.0690142065313 1.44570311691243
vertex 95.9569309228203 -44.0690142065313 3.5
endloop
endfacet
facet normal 1.0 0.0 0.0
outer loop
vertex 95.9569309228203 -43.9690142065313 1.2
vertex 95.9569309228203 -44.0690142065313 1.44570311691243
vertex 95.9569309228203 -44.0690142065313 1.2
endloop
endfacet
facet normal 1.0 0.0 0.0
outer loop
vertex 95.9569309228203 -44.0690142065313 1.44570311691243
vertex 95.9569309228203 -43.9690142065313 1.2
vertex 95.9569309228203 -43.9690142065313 1.44570311691243
endloop
endfacet
facet normal -1.0 0.0 0.0
outer loop
vertex 94.9569309228203 -43.9690142065313 1.44570311691243
vertex 94.9569309228203 -44.0690142065313 1.2
vertex 94.9569309228203 -44.0690142065313 1.44570311691243
endloop
endfacet
facet normal -1.0 0.0 0.0
outer loop
vertex 94.9569309228203 -44.0690142065313 1.2
vertex 94.9569309228203 -43.9690142065313 1.44570311691243
vertex 94.9569309228203 -43.9690142065313 1.2
endloop
endfacet
facet normal 0.0 -1.0 0.0
outer loop
vertex 95.9569309228203 -43.9690142065313 1.44570311691243
vertex 94.9569309228203 -43.9690142065313 1.2
vertex 95.9569309228203 -43.9690142065313 1.2
endloop
endfacet
facet normal 0.0 -1.0 0.0
outer loop
vertex 94.9569309228203 -43.9690142065313 1.2
vertex 95.9569309228203 -43.9690142065313 1.44570311691243
vertex 94.9569309228203 -43.9690142065313 1.44570311691243
endloop
endfacet
facet normal 0.0 0.0 -1.0
outer loop
vertex 96.9569309228203 -42.2690142065313 0.0
vertex 95.9569309228203 -44.0690142065313 0.0
vertex 95.9569309228203 -42.2690142065313 0.0
endloop
endfacet
facet normal 0.0 0.0 -1.0
outer loop
vertex 95.9569309228203 -44.0690142065313 0.0
vertex 96.9569309228203 -42.2690142065313 0.0
vertex 96.9569309228203 -44.0690142065313 0.0
endloop
endfacet
facet normal 0.0 0.0 -1.0
outer loop
vertex 95.9569309228203 -44.0690142065313 0.0
vertex 94.9569309228203 -48.023984959189 0.0
vertex 94.9569309228203 -44.0690142065313 0.0
endloop
endfacet
facet normal 0.0 0.0 -1.0
outer loop
vertex 94.9569309228203 -48.023984959189 0.0
vertex 95.9569309228203 -44.0690142065313 0.0
vertex 95.9569309228203 -48.023984959189 0.0
endloop
endfacet
facet normal 0.0 -1.0 0.0
outer loop
vertex 95.9569309228203 -44.0690142065313 1.2
vertex 94.9569309228203 -44.0690142065313 0.0
vertex 95.9569309228203 -44.0690142065313 0.0
endloop
endfacet
facet normal 0.0 -1.0 0.0
outer loop
vertex 94.9569309228203 -44.0690142065313 0.0
vertex 95.9569309228203 -44.0690142065313 1.2
vertex 94.9569309228203 -44.0690142065313 1.2
endloop
endfacet
facet normal 0.0 0.0 -1.0
outer loop
vertex 94.9569309228203 -42.2690142065313 0.0
vertex 93.9569309228203 -44.0690142065313 0.0
vertex 93.9569309228203 -42.2690142065313 0.0
endloop
endfacet
facet normal 0.0 0.0 -1.0
outer loop
vertex 93.9569309228203 -44.0690142065313 0.0
vertex 94.9569309228203 -42.2690142065313 0.0
vertex 94.9569309228203 -44.0690142065313 0.0
endloop
endfacet
facet normal 0.0 -1.0 0.0
outer loop
vertex 95.9569309228203 -44.0690142065313 1.44570311691243
vertex 94.9569309228203 -44.0690142065313 1.2
vertex 95.9569309228203 -44.0690142065313 1.2
endloop
endfacet
facet normal 0.0 -1.0 0.0
outer loop
vertex 94.9569309228203 -44.0690142065313 1.2
vertex 95.9569309228203 -44.0690142065313 1.44570311691243
vertex 94.9569309228203 -44.0690142065313 1.44570311691243
endloop
endfacet
facet normal 0.0 0.0 1.0
outer loop
vertex 95.9569309228203 -44.0690142065313 1.2
vertex 94.9569309228203 -43.9690142065313 1.2
vertex 94.9569309228203 -44.0690142065313 1.2
endloop
endfacet
facet normal 0.0 0.0 1.0
outer loop
vertex 94.9569309228203 -43.9690142065313 1.2
vertex 95.9569309228203 -44.0690142065313 1.2
vertex 95.9569309228203 -43.9690142065313 1.2
endloop
endfacet
endsolid Guitar Piece
